PathFileType	4	(X/Y/Z)	E:\Qualisys_Data\Carbon_Farble_Plate\Data\Amateur_Runner\S1\T3\S1T3V13_c3d.trc
DataRate	CameraRate	NumFrames	NumMarkers	Units	OrigDataRate	OrigDataStartFrame	OrigNumFrames
200.000000	200.000000	5	39	mm	200.000000	0	318
Frame#	Time	LSHO			RSHO			LICST			RICST			LASIS			LHEEL			RASIS			LTROC			RTROC			SACR			LTH1			LSK4			LTH2			LTH3			RHM5			LSK2			LTH4			RTH1			LTOE			RTH2			RTH3			RTH4			LLEP			RLEP			LSK1			LSK3			RSK1			LHM5			RSK2			LFT1			RSK3			RSK4			LLME			RLME			RTOE			RHEEL			RFT1			RFT2			LFT2			
		X1	Y1	Z1	X2	Y2	Z2	X3	Y3	Z3	X4	Y4	Z4	X5	Y5	Z5	X6	Y6	Z6	X7	Y7	Z7	X8	Y8	Z8	X9	Y9	Z9	X10	Y10	Z10	X11	Y11	Z11	X12	Y12	Z12	X13	Y13	Z13	X14	Y14	Z14	X15	Y15	Z15	X16	Y16	Z16	X17	Y17	Z17	X18	Y18	Z18	X19	Y19	Z19	X20	Y20	Z20	X21	Y21	Z21	X22	Y22	Z22	X23	Y23	Z23	X24	Y24	Z24	X25	Y25	Z25	X26	Y26	Z26	X27	Y27	Z27	X28	Y28	Z28	X29	Y29	Z29	X30	Y30	Z30	X31	Y31	Z31	X32	Y32	Z32	X33	Y33	Z33	X34	Y34	Z34	X35	Y35	Z35	X36	Y36	Z36	X37	Y37	Z37	X38	Y38	Z38	X39	Y39	Z39	

1	0	-2243.865234375	1555.627319335938	-591.1251831054688	-2334.464599609375	1558.492431640625	-282.5814514160156	-2302.616943359375	1076.769653320312	-565.9686889648438	-2315.755615234375	1110.626586914062	-271.784912109375	-2261.700927734375	1035.196411132812	-538.0652465820312	-2805.589599609375	295.5516967773438	-464.9473876953125	-2277.28173828125	1062.573486328125	-275.4248657226562	-2389.837890625	969.975830078125	-580.9076538085938	-2373.71484375	971.9264526367188	-239.5158996582031	-2426.800048828125	1114.186767578125	-420.7646179199219	-2319.677490234375	790.414794921875	-550.97021484375	-2717.06298828125	386.6660766601562	-494.5986938476562	-2395.8466796875	812.3308715820312	-581.326171875	-2356.193115234375	694.4968872070312	-533.3525390625	-2017.742431640625	155.4944152832031	-241.0872192382812	-2650.078857421875	457.1856079101562	-531.996337890625	-2434.380859375	721.4785766601562	-554.6148681640625	-2204.045166015625	895.2057495117188	-260.331787109375	-2693.748779296875	69.98876190185547	-462.1326293945312	-2273.215576171875	857.0587158203125	-238.3215942382812	-2157.3173828125	804.875732421875	-264.7077026367188	-2228.92578125	768.4962158203125	-252.5371398925781	-2464.1865234375	571.811279296875	-517.7830810546875	-2144.2919921875	621.762451171875	-275.9342956542969	-2589.819580078125	399.0549926757812	-524.2864990234375	-2664.70068359375	329.916748046875	-520.65478515625	-2139.65185546875	426.2120971679688	-250.2332000732422	-2750.89404296875	117.2129058837891	-519.7303466796875	-2220.7470703125	424.1516723632812	-268.7263793945312	-2824.232666015625	276.4239196777344	-432.6289367675781	-2134.291015625	326.2478942871094	-262.5182495117188	-2210.359375	324.7837829589844	-288.8148498535156	-2761.28662109375	264.4335021972656	-513.2518920898438	-2159.1005859375	189.6725769042969	-264.7593994140625	-1961.048828125	179.3135223388672	-307.6777954101562	-2208.9423828125	134.8893432617188	-312.5260925292969	-2191.05517578125	109.8098373413086	-342.7626342773438	-2202.782958984375	110.1583251953125	-292.1908874511719	-2832.3515625	274.025146484375	-483.3530883789062
2	0.005	-2227.321533203125	1557.875854492188	-589.8846435546875	-2318.306396484375	1559.56103515625	-282.0921325683594	-2283.295654296875	1077.434814453125	-565.6837158203125	-2297.87841796875	1110.506103515625	-271.2999267578125	-2243.583984375	1036.5068359375	-537.3848266601562	-2793.71923828125	301.9084777832031	-464.7074584960938	-2260.579345703125	1063.063354492188	-276.7190551757812	-2371.65771484375	971.4725341796876	-580.8179321289062	-2356.55615234375	972.3353271484376	-239.2776794433594	-2408.234130859375	1115.1455078125	-419.8404541015625	-2302.794189453125	791.8438720703125	-550.5530395507812	-2703.621826171875	392.2154235839844	-494.8761596679688	-2378.6298828125	813.7131958007812	-581.3930053710938	-2339.422119140625	695.7564697265625	-533.2220458984375	-1987.15283203125	158.6644897460938	-241.1231384277344	-2635.475341796875	461.3330078125	-532.0667724609375	-2417.744873046875	723.1491088867188	-554.7402954101562	-2187.63623046875	893.1917724609375	-259.7503356933594	-2686.3212890625	76.0383529663086	-460.7892150878906	-2255.94140625	856.4874267578125	-238.5269317626953	-2141.936767578125	801.9837646484375	-264.6180114746094	-2214.67041015625	767.4277954101562	-253.4600067138672	-2447.99365234375	573.2885131835938	-518.5968017578125	-2130.307373046875	618.8781127929688	-276.5090942382812	-2576.2119140625	402.6395263671875	-524.88916015625	-2652.903076171875	335.4488525390625	-521.4961547851562	-2120.858154296875	424.858154296875	-249.34326171875	-2742.04296875	123.2471084594727	-518.0972900390625	-2201.086181640625	419.4971618652344	-267.7415771484375	-2812.440185546875	283.6384887695312	-432.8892211914062	-2111.98876953125	325.1851196289062	-262.0845947265625	-2187.032958984375	320.6210021972656	-289.1783447265625	-2749.972900390625	270.5723876953125	-513.5706176757812	-2127.16162109375	187.8347625732422	-264.5387878417969	-1932.18359375	185.2868804931641	-307.7715454101562	-2177.224609375	131.1810302734375	-312.2461853027344	-2158.968994140625	106.4971694946289	-342.6505737304688	-2171.253662109375	105.9994659423828	-292.607421875	-2821.65966796875	282.2448120117188	-484.1479187011719
3	0.01	-2209.797119140625	1559.577514648438	-588.3323364257812	-2301.92138671875	1560.248291015625	-281.6099243164062	-2266.19482421875	1079.090209960938	-565.4483642578125	-2278.783935546875	1110.912719726562	-270.1435852050781	-2225.8544921875	1037.007690429688	-537.204345703125	-2782.880859375	308.5710144042969	-466.0476379394531	-2242.52099609375	1062.91064453125	-276.1439819335938	-2354.20947265625	973.0836791992188	-580.6461181640625	-2339.563720703125	972.0152587890624	-240.0483703613281	-2390.55859375	1116.613159179688	-419.4903869628906	-2286.30859375	793.5784301757812	-551.2122802734375	-2689.576904296875	397.5099792480469	-495.1348571777344	-2361.322021484375	815.0453491210938	-581.0691528320312	-2321.971923828125	696.9923095703125	-533.3582153320312	-1957.953491210938	161.5070190429688	-241.2277526855469	-2620.36962890625	465.5621643066406	-531.9989013671875	-2400.345703125	724.15234375	-554.3800048828125	-2170.9033203125	891.6964111328125	-260.0296936035156	-2675.9775390625	81.96935272216797	-458.3185119628906	-2239.867919921875	855.8211059570312	-237.9526977539062	-2125.712890625	799.8777465820312	-264.4139709472656	-2199.85791015625	765.8697509765625	-253.5145874023438	-2430.711669921875	574.6176147460938	-518.0996704101562	-2116.349853515625	616.540283203125	-276.3118591308594	-2562.37353515625	406.1758117675781	-525.2359008789062	-2639.49365234375	339.2574768066406	-520.96533203125	-2102.825439453125	423.7319030761719	-249.342041015625	-2732.382568359375	128.5020904541016	-516.5494995117188	-2182.4091796875	415.7574462890625	-268.9236145019531	-2802.23046875	290.701904296875	-433.8770751953125	-2089.435546875	324.32080078125	-261.8312072753906	-2165.13623046875	317.8338012695312	-290.1965026855469	-2739.554443359375	276.0743713378906	-513.642822265625	-2100.32568359375	185.650390625	-265.1135559082031	-1904.382934570312	191.4021911621094	-307.9414367675781	-2149.114990234375	127.8884658813477	-313.4187927246094	-2128.4130859375	103.852294921875	-342.8459777832031	-2139.877685546875	102.5315475463867	-292.102294921875	-2811.868896484375	288.2987365722656	-484.82373046875
4	0.015	-2193.043212890625	1561.200561523438	-586.7484741210938	-2285.5390625	1560.588989257812	-280.8360290527344	-2248.7783203125	1080.216552734375	-564.8096313476562	-2261.4248046875	1110.967407226562	-269.8611145019531	-2208.706298828125	1038.2275390625	-537.018798828125	-2774.154296875	315.924560546875	-468.3499145507812	-2224.049072265625	1062.481323242188	-275.5897827148438	-2336.99267578125	974.6376953125	-580.67578125	-2322.434326171875	972.4204711914062	-239.9909820556641	-2372.43212890625	1117.0556640625	-418.4623107910156	-2268.560546875	794.0505981445312	-550.6631469726562	-2675.879150390625	403.1905517578125	-495.4384765625	-2343.578125	815.4390869140625	-580.2276611328125	-2304.261474609375	697.629150390625	-532.725341796875	-1930.55908203125	164.4683227539062	-242.2888488769531	-2605.203857421875	469.8131408691406	-532.3917846679688	-2382.4326171875	724.7654418945312	-553.8335571289062	-2153.861328125	889.2393188476562	-258.9267272949219	-2665.759765625	88.31525421142578	-455.7278137207031	-2224.01220703125	854.4583740234375	-236.9729309082031	-2111.64697265625	796.67919921875	-263.9969787597656	-2183.889404296875	763.9244384765625	-252.9340209960938	-2413.395751953125	574.7137451171875	-518.4428100585938	-2102.31689453125	615.05859375	-276.2758178710938	-2547.595458984375	408.052490234375	-525.0552978515625	-2626.14794921875	343.6627807617188	-520.6489868164062	-2084.839111328125	422.4084777832031	-249.391357421875	-2721.243408203125	133.9485778808594	-514.7483520507812	-2164.00390625	411.9044494628906	-269.1885681152344	-2791.91015625	297.2559814453125	-434.3758850097656	-2067.680908203125	324.107421875	-261.1661071777344	-2143.371826171875	314.6879272460938	-290.3260803222656	-2728.0791015625	281.80517578125	-513.4563598632812	-2074.34130859375	183.4195556640625	-265.3679504394531	-1877.932373046875	197.0254364013672	-308.3301696777344	-2119.64794921875	124.4296798706055	-312.3399353027344	-2098.4638671875	101.7091674804688	-342.8686218261719	-2109.678955078125	99.0419692993164	-292.2049255371094	-2801.991943359375	293.7728576660156	-485.0757141113281
5	0.02	-2175.573974609375	1562.56689453125	-585.0115966796875	-2269.26123046875	1560.91845703125	-279.8037109375	-2231.760498046875	1081.336059570312	-564.3804931640625	-2243.451171875	1110.67626953125	-269.2244567871094	-2191.579833984375	1038.742065429688	-536.8428955078125	-2763.668212890625	322.3473815917969	-468.6585388183594	-2206.838623046875	1062.385498046875	-275.4265747070312	-2319.2919921875	975.025390625	-580.4823608398438	-2303.5869140625	972.406982421875	-239.7174835205078	-2355.48095703125	1118.309936523438	-418.4446411132812	-2250.47705078125	794.719970703125	-549.8832397460938	-2661.294677734375	408.9093322753906	-495.7988891601562	-2325.961669921875	816.2242431640625	-579.9920654296875	-2286.381591796875	698.4384155273438	-531.9412231445312	-1903.584350585938	167.1025695800781	-242.40576171875	-2589.216552734375	473.6553039550781	-532.9524536132812	-2364.517333984375	725.24462890625	-553.9659423828125	-2137.30078125	886.5760498046875	-259.1804504394531	-2654.543212890625	95.6953353881836	-453.1025085449219	-2207.626953125	852.3057250976562	-236.4937896728516	-2096.5830078125	793.2325439453125	-263.7838439941406	-2170.260986328125	760.7821655273438	-252.0403594970703	-2395.918701171875	575.3136596679688	-518.4151000976562	-2088.92333984375	612.0745849609375	-277.9275512695312	-2532.544189453125	410.8625793457031	-524.698486328125	-2613.692138671875	348.2548828125	-520.6182861328125	-2066.008056640625	421.5455017089844	-249.0426940917969	-2710.0869140625	140.5731506347656	-513.7767333984375	-2145.707275390625	408.250244140625	-270.0232238769531	-2781.68359375	303.7856140136719	-435.0307006835938	-2046.572631835938	323.0077209472656	-260.555419921875	-2121.780517578125	311.5868530273438	-290.9943542480469	-2716.861083984375	287.8885498046875	-513.2748413085938	-2048.10498046875	182.7928466796875	-265.055908203125	-1852.608032226562	202.8218688964844	-308.8470764160156	-2094.34326171875	119.5191421508789	-312.1787719726562	-2070.384521484375	100.5706939697266	-342.96728515625	-2081.27978515625	96.44841003417967	-292.072265625	-2791.0673828125	299.1262817382812	-485.9690551757812
